<svg width="115px" height="73px" viewBox="0 0 115 73" version="1.1" xmlns="http://www.w3.org/2000/svg" xmlns:xlink="http://www.w3.org/1999/xlink">
    <g id="Page-1" stroke="none" stroke-width="1" fill="none" fill-rule="evenodd">
        <g id="icon-dark" transform="translate(0.000000, -0.000000)" fill="#FFFFFF" fill-rule="nonzero">
            <path d="M114.822,62.4621939 C114.827,62.4591939 114.833,62.4571939 114.838,62.4541939 L114.596,62.0161939 L114.422,61.5471939 C111.533,62.6211939 108.943,62.5611939 106.504,61.3631939 C98.707,57.5341939 94.147,42.8841939 89.735,28.7171939 C85.468,15.0151939 81.44,2.07119387 74.652,0.229193873 C71.877,-0.525806127 68.913,0.580193873 65.588,3.61119387 C60.811,8.16119387 56.358,17.9311939 52.049,27.3801939 C46.907,38.6611939 41.59,50.3251939 36.476,50.8071939 C33.03,51.1511939 29.481,46.5371939 25.736,41.6731939 C19.475,33.5431939 11.682,23.4251939 0.076,30.7281939 L0.305,31.0931939 C0.221,31.1511939 0.138,31.1981939 0.054,31.2581939 L0.294,31.5971939 C0.207,31.6631939 0.121,31.7181939 0.034,31.7861939 L0.283,32.1021939 C0.194,32.1761939 0.105,32.2381939 0.016,32.3151939 L0.27,32.6081939 C0.18,32.6901939 0.09,32.7581939 0,32.8431939 L0.686,33.5721939 C3.321,31.0881939 5.777,30.1161939 8.184,30.5961939 C14.519,31.8611939 19.643,43.3011939 24.163,53.3941939 C28.73,63.5901939 32.687,72.4261939 37.71,72.4261939 C37.82,72.4261939 37.931,72.4221939 38.043,72.4131939 C45.19,71.8601939 47.835,62.3021939 50.898,51.2341939 C53.071,43.3801939 55.534,34.4811939 59.989,28.1261939 C63.952,22.7171939 67.489,20.2191939 70.806,20.4971939 C76.743,20.9911939 81.442,30.3281939 86.417,40.2141939 C91.685,50.6831939 97.134,61.5061939 104.939,63.9051939 C108.047,64.8611939 111.366,64.3781939 114.799,62.4731939 C114.801,62.4731939 114.803,62.4721939 114.805,62.4711939 L114.805,62.4711939 C114.811,62.4681939 114.817,62.4661939 114.822,62.4621939 L114.822,62.4621939 Z M24.531,47.9861939 C28.919,55.7721939 32.69,62.4931939 37.306,62.1081939 C43.74,61.5621939 47.748,50.7391939 51.992,39.2821939 C55.219,30.5701939 58.556,21.5611939 63.138,16.2291939 C66.585,12.2171939 69.628,10.4931939 72.429,10.9631939 C78.435,11.9671939 82.788,22.9111939 87.397,34.4971939 C89.938,40.8831939 92.525,47.3711939 95.526,52.6191939 C92.718,48.0151939 90.201,42.4091939 87.726,36.8901939 C82.805,25.9081939 78.154,15.5351939 71.658,14.7451939 C68.252,14.3271939 64.685,16.5581939 60.778,21.5601939 C56.111,27.5321939 53.24,36.3841939 50.465,44.9451939 C46.992,55.6541939 43.713,65.7701939 37.594,66.2651939 C33.394,66.6231939 29.426,58.6751939 25.239,50.2801939 C23.48,46.7521939 21.697,43.1831939 19.813,40.0061939 C21.469,42.5631939 23.034,45.3321939 24.531,47.9861939 Z M18.281,36.0721939 C20.595,38.8221939 22.726,42.0901939 24.73,45.1751939 C28.973,51.7031939 32.646,57.3371939 36.938,56.9561939 C42.994,56.4151939 47.595,45.2941939 52.466,33.5211939 C56.205,24.4861939 60.07,15.1431939 64.707,10.2851939 C67.934,6.90519387 70.76,5.53119387 73.355,6.08919387 C79.451,7.39819387 83.611,19.1931939 88.015,31.6801939 C90.226,37.9481939 92.472,44.3131939 95.066,49.6911939 C92.649,44.9921939 90.47,39.5211939 88.326,34.1281939 C83.611,22.2731939 79.157,11.0751939 72.596,9.97819387 C69.42,9.44919387 66.075,11.2781939 62.379,15.5791939 C57.68,21.0461939 54.312,30.1411939 51.054,38.9361939 C46.924,50.0861939 43.022,60.6211939 37.221,61.1131939 C33.278,61.4461939 29.447,54.6721939 25.402,47.4971939 C23.207,43.6031939 20.868,39.4621939 18.281,36.0721939 Z M24.944,42.2841939 C29.032,47.5931939 32.555,52.1821939 36.57,51.8041939 C42.26,51.2681939 47.457,39.8671939 52.959,27.7981939 C57.227,18.4361939 61.64,8.75619387 66.269,4.34619387 C69.313,1.57119387 71.97,0.542193873 74.39,1.19719387 C80.648,2.89519387 84.597,15.5841939 88.781,29.0191939 C90.782,35.4471939 92.815,41.9691939 95.181,47.5791939 C92.94,42.6271939 90.935,36.9491939 88.958,31.3481939 C84.457,18.5891939 80.206,6.53819387 73.563,5.11219387 C70.602,4.47719387 67.467,5.94319387 63.982,9.59619387 C59.215,14.5891939 55.314,24.0201939 51.541,33.1401939 C46.789,44.6241939 42.3,55.4731939 36.848,55.9591939 C33.154,56.3001939 29.465,50.6261939 25.567,44.6281939 C23,40.6801939 20.234,36.4341939 17.096,33.2921939 C19.945,35.7971939 22.508,39.1201939 24.944,42.2841939 Z M70.889,19.5011939 C67.205,19.1931939 63.368,21.8221939 59.176,27.5441939 C54.616,34.0481939 52.13,43.0371939 49.934,50.9681939 C46.972,61.6731939 44.413,70.9181939 37.966,71.4161939 C33.488,71.7631939 29.402,62.6431939 25.076,52.9841939 C23.754,50.0321939 22.419,47.0541939 21.038,44.2541939 C22.179,46.3901939 23.279,48.5901939 24.343,50.7261939 C28.764,59.5901939 32.595,67.2771939 37.321,67.2761939 C37.438,67.2761939 37.556,67.2711939 37.675,67.2611939 C44.458,66.7121939 47.683,56.7681939 51.416,45.2521939 C54.165,36.7741939 57.008,28.0071939 61.566,22.1751939 C65.24,17.4731939 68.507,15.3691939 71.538,15.7371939 C77.473,16.4591939 82.012,26.5811939 86.815,37.2981939 C89.558,43.4171939 92.353,49.6321939 95.568,54.5411939 C92.608,50.2821939 89.935,44.9811939 87.31,39.7661939 C82.205,29.6221939 77.383,20.0411939 70.889,19.5011939 Z" id="Shape"></path>
        </g>
    </g>
</svg>
